{
  "accessors": [
    {
      "bufferView": 2,
      "componentType": 5126,
      "count": 1117,
      "max": [
        3.1768994331359863,
        13.864272117614746,
        3.4261550903320313
      ],
      "min": [
        -3.17689847946167,
        -4.172325134277344e-07,
        -0.2676323652267456
      ],
      "type": "VEC3"
    },
    {
      "bufferView": 2,
      "byteOffset": 13404,
      "componentType": 5126,
      "count": 1117,
      "max": [
        0.997909426689148,
        0.9999771118164063,
        0.9999674558639526
      ],
      "min": [
        -0.9979094862937927,
        -0.9999999403953552,
        -0.9985655546188354
      ],
      "type": "VEC3"
    },
    {
      "bufferView": 1,
      "componentType": 5126,
      "count": 1117,
      "max": [
        0.9917464852333069,
        0.9920147657394409
      ],
      "min": [
        0.007316884119063616,
        0.00866079330444336
      ],
      "type": "VEC2"
    },
    {
      "bufferView": 1,
      "byteOffset": 8936,
      "componentType": 5126,
      "count": 1117,
      "max": [
        0.9917464852333069,
        0.9920147657394409
      ],
      "min": [
        0.007316884119063616,
        0.00866079330444336
      ],
      "type": "VEC2"
    },
    {
      "bufferView": 1,
      "byteOffset": 17872,
      "componentType": 5126,
      "count": 1117,
      "max": [
        0.9917464852333069,
        0.9920147657394409
      ],
      "min": [
        0.007316884119063616,
        0.00866079330444336
      ],
      "type": "VEC2"
    },
    {
      "bufferView": 0,
      "componentType": 5125,
      "count": 3348,
      "type": "SCALAR"
    }
  ],
  "asset": {
    "extras": {
      "author": "FrigidCarlKid (https://sketchfab.com/kmorganc1)",
      "license": "CC-BY-4.0 (http://creativecommons.org/licenses/by/4.0/)",
      "source": "https://sketchfab.com/3d-models/referee-1fb3f2fdf9c34aafb9e3602c431da133",
      "title": "Referee"
    },
    "generator": "Sketchfab-15.17.0",
    "version": "2.0"
  },
  "bufferViews": [
    {
      "buffer": 0,
      "byteLength": 13392,
      "name": "floatBufferViews",
      "target": 34963
    },
    {
      "buffer": 0,
      "byteLength": 26808,
      "byteOffset": 13392,
      "byteStride": 8,
      "name": "floatBufferViews",
      "target": 34962
    },
    {
      "buffer": 0,
      "byteLength": 26808,
      "byteOffset": 40200,
      "byteStride": 12,
      "name": "floatBufferViews",
      "target": 34962
    }
  ],
  "buffers": [
    {
      "byteLength": 67008,
      "uri": "scene.bin"
    }
  ],
  "extensionsRequired": [
    "KHR_materials_pbrSpecularGlossiness"
  ],
  "extensionsUsed": [
    "KHR_materials_pbrSpecularGlossiness"
  ],
  "images": [
    {
      "uri": "textures/material_diffuse.png"
    },
    {
      "uri": "textures/material_specularGlossiness.png"
    }
  ],
  "materials": [
    {
      "doubleSided": true,
      "extensions": {
        "KHR_materials_pbrSpecularGlossiness": {
          "diffuseFactor": [
            1.0,
            1.0,
            1.0,
            1.0
          ],
          "diffuseTexture": {
            "index": 0
          },
          "glossinessFactor": 1.0,
          "specularFactor": [
            1.0,
            1.0,
            1.0
          ],
          "specularGlossinessTexture": {
            "index": 1
          }
        }
      },
      "name": "material"
    }
  ],
  "meshes": [
    {
      "name": "Object_0",
      "primitives": [
        {
          "attributes": {
            "NORMAL": 1,
            "POSITION": 0,
            "TEXCOORD_0": 2,
            "TEXCOORD_1": 3,
            "TEXCOORD_2": 4
          },
          "indices": 5,
          "material": 0,
          "mode": 4
        }
      ]
    }
  ],
  "nodes": [
    {
      "children": [
        1
      ],
      "matrix": [
        0.8367303609848022,
        7.894565385138317e-32,
        -2.370264115117396e-16,
        0.0,
        -2.370264115117396e-16,
        4.2281787394538884e-16,
        -0.8367303609848022,
        0.0,
        4.0828901972879444e-32,
        0.8367303609848022,
        4.2281787394538884e-16,
        0.0,
        0.0,
        0.0,
        0.0,
        1.0
      ],
      "name": "Sketchfab_model"
    },
    {
      "children": [
        2
      ],
      "name": "root"
    },
    {
      "children": [
        3
      ],
      "matrix": [
        1.0,
        0.0,
        0.0,
        0.0,
        0.0,
        2.220446049250313e-16,
        1.0,
        0.0,
        0.0,
        -1.0,
        2.220446049250313e-16,
        0.0,
        0.0,
        0.0,
        0.0,
        1.0
      ],
      "name": "GLTF_SceneRootNode"
    },
    {
      "children": [
        4
      ],
      "name": "root_0"
    },
    {
      "children": [
        5
      ],
      "matrix": [
        0.16179583966732025,
        0.0,
        0.0,
        0.0,
        0.0,
        0.16179583966732025,
        0.0,
        0.0,
        0.0,
        0.0,
        0.16179583966732025,
        0.0,
        0.029608160257339478,
        -0.3330000042915344,
        -0.23013275861740112,
        1.0
      ],
      "name": "node_id64_1"
    },
    {
      "mesh": 0,
      "name": "Object_5"
    }
  ],
  "samplers": [
    {
      "magFilter": 9729,
      "minFilter": 9987,
      "wrapS": 10497,
      "wrapT": 10497
    }
  ],
  "scene": 0,
  "scenes": [
    {
      "name": "Sketchfab_Scene",
      "nodes": [
        0
      ]
    }
  ],
  "textures": [
    {
      "sampler": 0,
      "source": 0
    },
    {
      "sampler": 0,
      "source": 1
    }
  ]
}
